<?xml version="1.0" encoding="UTF-8"?>
<svg xmlns="http://www.w3.org/2000/svg" width="546" height="183" viewBox="0 0 546 183" fill="none">
  <path d="M545.13 38.47C545.13 37.07 545.13 35.67 545.109 34.28C545 31.22 544.82 28.17 544.26 25.16C543.74 22.1 542.83 19.26 541.44 16.49C540.039 13.76 538.229 11.26 536.06 9.1C533.909 6.94 531.409 5.13 528.69 3.73C525.89 2.32 523.039 1.41 520 0.87C517 0.33 513.94 0.14 510.89 0.06C509.49 0.04 508.08 0.01 506.69 0C505.05 0 503.38 0 501.75 0H43.4395C41.7695 0 40.1195 0 38.4595 0C37.0595 0 35.6795 0.04 34.2695 0.06C31.2495 0.14 28.1695 0.33 25.1495 0.87C22.0895 1.4 19.2595 2.31 16.4895 3.73C13.7595 5.13 11.2595 6.94 9.10953 9.1C6.92953 11.26 5.12953 13.75 3.74953 16.49C2.32953 19.26 1.43953 22.1 0.899531 25.16C0.349531 28.18 0.169531 31.22 0.0895313 34.28C0.0395313 35.68 0.0395312 37.08 0.0195312 38.47V143.77C0.0395312 145.19 0.0395313 146.56 0.0895313 147.98C0.169531 151.03 0.359531 154.09 0.899531 157.1C1.42953 160.14 2.32953 163 3.74953 165.77C5.12953 168.49 6.93953 170.98 9.10953 173.13C11.2595 175.3 13.7595 177.11 16.4895 178.5C19.2595 179.92 22.0995 180.82 25.1495 181.36C28.1695 181.91 31.2495 182.09 34.2695 182.17C35.6795 182.2 37.0695 182.22 38.4595 182.22C40.1195 182.22 41.7695 182.22 43.4395 182.22H501.75C503.39 182.22 505.06 182.22 506.69 182.22C508.08 182.22 509.5 182.2 510.89 182.17C513.94 182.08 517 181.9 520 181.36C523.049 180.82 525.9 179.92 528.69 178.5C531.419 177.11 533.909 175.3 536.06 173.13C538.229 170.98 540.039 168.49 541.44 165.77C542.84 163 543.75 160.14 544.26 157.1C544.82 154.08 544.99 151.03 545.109 147.98C545.13 146.56 545.13 145.19 545.13 143.77C545.16 142.12 545.159 140.47 545.159 138.79V43.45C545.159 41.78 545.16 40.13 545.13 38.47ZM541.19 138.79C541.19 140.44 541.19 142.06 541.159 143.69C541.159 145.17 541.16 146.53 541.14 147.92C541.049 150.61 540.88 153.56 540.37 156.36C539.89 159.15 539.099 161.63 537.909 163.97C536.68 166.34 535.12 168.49 533.28 170.28C531.4 172.19 529.259 173.74 526.909 174.93C524.549 176.14 522.14 176.93 519.31 177.44C516.39 177.97 513.37 178.12 510.79 178.19C509.46 178.22 508.06 178.24 506.71 178.24H38.4695C37.0795 178.24 35.7295 178.22 34.3595 178.19C31.8095 178.12 28.7895 177.97 25.8395 177.44C23.0595 176.94 20.5895 176.13 18.2895 174.95C15.9095 173.74 13.7695 172.19 11.9295 170.31C10.0395 168.47 8.48953 166.34 7.27953 163.95C6.09953 161.65 5.29953 159.18 4.80953 156.4C4.24953 153.34 4.10953 150.22 4.03953 147.86C4.01953 146.9 3.97953 143.69 3.97953 143.69V38.47C3.97953 38.47 4.01953 35.32 4.03953 34.4C4.09953 32.01 4.24953 28.9 4.79953 25.87C5.27953 23.07 6.08953 20.61 7.27953 18.31C8.48953 15.91 10.0495 13.78 11.9095 11.94C13.7895 10.04 15.9295 8.49 18.2995 7.28C20.6395 6.09 23.1095 5.28 25.8295 4.8C28.8895 4.24 31.9995 4.11 34.3695 4.05L38.4695 3.99H506.67L510.83 4.05C513.16 4.11 516.269 4.24 519.299 4.79C522.039 5.27 524.529 6.09 526.909 7.28C529.25 8.48 531.39 10.04 533.26 11.92C535.12 13.77 536.68 15.92 537.909 18.32C539.089 20.65 539.889 23.11 540.349 25.83C540.87 28.71 541.04 31.66 541.14 34.43C541.16 35.72 541.159 37.11 541.159 38.49C541.19 40.19 541.19 41.83 541.19 43.47V138.82V138.79Z" fill="black"></path>
  <path d="M488.108 90.61C487.988 77.58 498.778 71.25 499.268 70.95C493.158 62.04 483.688 60.82 480.368 60.72C472.408 59.88 464.698 65.49 460.648 65.49C456.598 65.49 450.268 60.81 443.548 60.94C434.898 61.08 426.798 66.09 422.348 73.87C413.188 89.73 420.028 113.04 428.798 125.87C433.188 132.14 438.318 139.17 445.038 138.91C451.608 138.64 454.058 134.72 461.998 134.72C469.938 134.72 472.158 138.91 479.018 138.75C486.068 138.64 490.498 132.44 494.748 126.1C499.818 118.91 501.858 111.82 501.938 111.45C501.768 111.39 488.248 106.22 488.108 90.6" fill="black"></path>
  <path d="M475.167 52.28C478.697 47.86 481.117 41.85 480.447 35.75C475.337 35.98 468.927 39.29 465.257 43.61C461.987 47.42 459.077 53.67 459.837 59.53C465.577 59.96 471.477 56.63 475.167 52.28Z" fill="black"></path>
  <path d="M253.633 47.4719C253.377 47.4719 253.249 47.344 253.249 47.0882V43.7885C253.249 43.5329 253.377 43.405 253.633 43.405H257.316C257.572 43.405 257.7 43.5329 257.7 43.7885V47.0882C257.7 47.344 257.572 47.4719 257.316 47.4719H253.633ZM259.465 49.774C259.465 49.5182 259.593 49.3903 259.848 49.3903H263.417C263.673 49.3903 263.8 49.5182 263.8 49.774V55.9128C263.8 56.6803 264.082 57.2686 264.644 57.6778C265.233 58.087 266.013 58.2916 266.985 58.2916H267.407C267.919 58.2916 268.302 58.4324 268.558 58.7137C268.814 58.9952 268.942 59.4683 268.942 60.1333C268.942 60.8752 268.814 61.3866 268.558 61.6682C268.328 61.9495 267.944 62.0902 267.407 62.0902C266.64 62.0902 265.949 62.0133 265.335 61.8599C264.747 61.7065 264.235 61.374 263.8 60.8624V61.2844C263.8 62.7424 263.57 64.0212 263.11 65.1212C262.675 66.2211 262.035 67.1291 261.191 67.8453C260.373 68.5871 259.388 69.137 258.237 69.495C257.086 69.8533 255.807 70.0324 254.4 70.0324C253.045 70.0324 251.791 69.8533 250.64 69.495C249.515 69.137 248.53 68.5871 247.686 67.8453C246.842 67.1291 246.177 66.2211 245.691 65.1212C245.23 64.0212 245 62.7295 245 61.2461C245 59.8648 245.217 58.4836 245.652 57.1023C246.087 55.7211 246.624 54.5316 247.264 53.534C247.392 53.3039 247.583 53.2782 247.839 53.4573L250.947 54.6852C251.075 54.7364 251.139 54.8131 251.139 54.9153C251.165 54.992 251.152 55.0815 251.1 55.1839C250.691 55.9002 250.295 56.7441 249.911 57.7161C249.553 58.6627 249.374 59.7114 249.374 60.8624C249.374 61.8599 249.527 62.6912 249.835 63.3562C250.167 64.0469 250.576 64.5969 251.062 65.0061C251.574 65.4153 252.136 65.6967 252.75 65.8503C253.364 66.0292 253.965 66.1187 254.554 66.1187C256.012 66.1187 257.188 65.7224 258.083 64.9294C259.004 64.162 259.465 62.9086 259.465 61.1694V49.774ZM279.145 62.3587C277.866 62.3587 276.715 62.1924 275.692 61.8599C274.668 61.5019 273.812 60.9262 273.121 60.1333C272.865 60.5427 272.558 60.8752 272.2 61.131C271.842 61.3866 271.471 61.5915 271.088 61.7449C270.704 61.8728 270.308 61.9623 269.898 62.0133C269.489 62.0645 269.105 62.0902 268.747 62.0902H267.404C266.893 62.0902 266.509 61.9495 266.253 61.6682C265.997 61.3611 265.87 60.8624 265.87 60.1719C265.87 59.4299 265.997 58.9311 266.253 58.6753C266.483 58.4195 266.867 58.2916 267.404 58.2916H268.901C269.182 58.2916 269.463 58.2406 269.745 58.1382C270.026 58.0103 270.282 57.8186 270.512 57.5627C270.742 57.2814 270.934 56.9232 271.088 56.4885C271.241 56.0281 271.318 55.4653 271.318 54.8002C271.292 54.5956 271.279 54.4037 271.279 54.2248C271.279 54.0457 271.279 53.8539 271.279 53.6493C271.305 52.1656 271.51 50.9123 271.893 49.889C272.303 48.8405 272.853 47.9964 273.543 47.3568C274.259 46.6918 275.091 46.2185 276.037 45.9372C276.983 45.6302 278.019 45.4768 279.145 45.4768C280.27 45.4768 281.319 45.6302 282.291 45.9372C283.263 46.2443 284.094 46.7302 284.785 47.3952C285.501 48.0602 286.051 48.9427 286.435 50.0426C286.844 51.1424 287.049 52.4726 287.049 54.0328C287.049 55.542 286.857 56.821 286.473 57.8698C286.089 58.9183 285.552 59.7753 284.862 60.4403C284.171 61.1053 283.34 61.5915 282.368 61.8983C281.396 62.2053 280.321 62.3587 279.145 62.3587ZM279.145 49.3136C277.917 49.3136 277.009 49.7101 276.421 50.5031C275.832 51.296 275.538 52.4469 275.538 53.9561C275.538 55.5932 275.832 56.7698 276.421 57.486C277.009 58.2023 277.917 58.5603 279.145 58.5603C280.398 58.5603 281.319 58.2023 281.907 57.486C282.496 56.7441 282.79 55.5677 282.79 53.9561C282.79 50.8611 281.575 49.3136 279.145 49.3136ZM299.817 61.2461C299.817 59.8648 300.034 58.4836 300.469 57.1023C300.904 55.7211 301.441 54.5316 302.08 53.534C302.183 53.3551 302.375 53.3294 302.656 53.4573L305.764 54.6852C305.892 54.7364 305.956 54.8131 305.956 54.9153C305.981 54.992 305.968 55.0815 305.917 55.1839C305.508 55.9002 305.112 56.7441 304.728 57.7161C304.37 58.6627 304.191 59.7114 304.191 60.8624C304.191 61.8599 304.344 62.6912 304.651 63.3562C304.984 64.0469 305.393 64.5969 305.879 65.0061C306.39 65.4153 306.953 65.6967 307.567 65.8503C308.181 66.0292 308.782 66.1187 309.37 66.1187C310.854 66.1187 312.043 65.7224 312.939 64.9294C313.834 64.162 314.282 62.9086 314.282 61.1694V36.3837C314.282 36.1279 314.409 36 314.665 36H318.233C318.49 36 318.616 36.1279 318.616 36.3837V55.9128C318.616 56.6803 318.898 57.2686 319.461 57.6778C320.048 58.087 320.829 58.2916 321.802 58.2916H322.416C322.928 58.2916 323.311 58.4324 323.566 58.7137C323.821 58.9952 323.95 59.4683 323.95 60.1333C323.95 60.8752 323.821 61.3866 323.566 61.6682C323.336 61.9495 322.952 62.0902 322.416 62.0902C321.598 62.0902 320.869 62.0262 320.228 61.8983C319.614 61.7449 319.077 61.3995 318.616 60.8624V61.2844C318.616 62.7424 318.386 64.0212 317.926 65.1212C317.492 66.2211 316.852 67.1291 316.008 67.8453C315.19 68.5871 314.205 69.137 313.054 69.495C311.903 69.8533 310.624 70.0324 309.217 70.0324C307.861 70.0324 306.608 69.8533 305.457 69.495C304.331 69.137 303.347 68.5871 302.502 67.8453C301.659 67.1291 300.993 66.2211 300.507 65.1212C300.047 64.0212 299.817 62.7295 299.817 61.2461ZM329.736 69.4567C329.481 69.4567 329.352 69.3288 329.352 69.0732V65.7736C329.352 65.5178 329.481 65.3899 329.736 65.3899H332.959C333.216 65.3899 333.342 65.5178 333.342 65.7736V69.0732C333.342 69.3288 333.216 69.4567 332.959 69.4567H329.736ZM324.748 69.4567C324.493 69.4567 324.364 69.3288 324.364 69.0732V65.7736C324.364 65.5178 324.493 65.3899 324.748 65.3899H327.971C328.228 65.3899 328.355 65.5178 328.355 65.7736V69.0732C328.355 69.3288 328.228 69.4567 327.971 69.4567H324.748ZM330.733 60.1333C330.376 60.8752 329.826 61.3866 329.084 61.6682C328.368 61.9495 327.397 62.0902 326.169 62.0902H322.6C322.088 62.0902 321.704 61.975 321.449 61.7449C321.192 61.489 321.066 61.0031 321.066 60.2869C321.066 59.545 321.192 59.0336 321.449 58.752C321.68 58.4452 322.063 58.2916 322.6 58.2916H325.094C325.555 58.2916 325.901 58.2278 326.129 58.0999C326.386 57.9465 326.566 57.729 326.668 57.4477C326.794 57.1407 326.872 56.757 326.898 56.2965C326.923 55.8106 326.936 55.2223 326.936 54.5316V46.5511C326.936 46.3977 327 46.2952 327.126 46.2443C327.282 46.193 327.435 46.1676 327.588 46.1676H330.888C331.143 46.1676 331.272 46.2952 331.272 46.5511V55.9128C331.272 56.6803 331.553 57.2686 332.116 57.6778C332.704 58.087 333.484 58.2916 334.455 58.2916H335.109C335.619 58.2916 336.002 58.4324 336.259 58.7137C336.514 58.9952 336.643 59.4683 336.643 60.1333C336.643 60.8752 336.514 61.3866 336.259 61.6682C336.029 61.9495 335.645 62.0902 335.109 62.0902C334.111 62.0902 333.24 61.975 332.5 61.7449C331.757 61.489 331.17 60.9519 330.733 60.1333ZM346.851 49.3136C345.623 49.3136 344.714 49.7101 344.127 50.5031C343.539 51.296 343.244 52.4469 343.244 53.9561C343.244 55.5932 343.539 56.7698 344.127 57.486C344.714 58.2023 345.623 58.5603 346.851 58.5603C348.104 58.5603 349.026 58.2023 349.613 57.486C350.201 56.7441 350.495 55.5677 350.495 53.9561C350.495 50.8611 349.281 49.3136 346.851 49.3136ZM338.986 53.6493C339.01 52.1656 339.217 50.9123 339.6 49.889C340.008 48.8405 340.558 47.9964 341.249 47.3568C341.965 46.6918 342.797 46.2185 343.743 45.9372C344.69 45.6302 345.725 45.4768 346.851 45.4768C347.977 45.4768 349.026 45.6302 349.997 45.9372C350.97 46.2443 351.801 46.7302 352.491 47.3952C353.207 48.0602 353.756 48.9427 354.14 50.0426C354.55 51.1424 354.754 52.4726 354.754 54.0328C354.754 54.2631 354.754 54.4932 354.754 54.7235C354.754 54.9281 354.743 55.1327 354.716 55.3373C354.743 56.4116 354.984 57.179 355.445 57.6394C355.931 58.0744 356.481 58.2916 357.095 58.2916H358.207C358.72 58.2916 359.103 58.4324 359.358 58.7137C359.615 58.9952 359.741 59.4683 359.741 60.1333C359.741 60.8752 359.615 61.3866 359.358 61.6682C359.127 61.9495 358.744 62.0902 358.207 62.0902C357.773 62.0902 357.312 62.0774 356.826 62.0519C356.365 62.0262 355.893 61.9495 355.408 61.8216C354.947 61.6682 354.499 61.4635 354.064 61.2077C353.654 60.9262 353.284 60.5427 352.952 60.0566C352.26 60.8752 351.391 61.4636 350.342 61.8216C349.318 62.1796 348.155 62.3587 346.851 62.3587C345.572 62.3587 344.422 62.1924 343.397 61.8599C342.375 61.5019 341.518 60.9262 340.826 60.1333C340.571 60.5427 340.265 60.8752 339.906 61.131C339.549 61.3866 339.177 61.5915 338.793 61.7449C338.41 61.8728 338.013 61.9623 337.605 62.0133C337.195 62.0645 336.811 62.0902 336.452 62.0902H335.111C334.599 62.0902 334.216 61.9495 333.959 61.6682C333.704 61.3611 333.575 60.8624 333.575 60.1719C333.575 59.4299 333.704 58.9311 333.959 58.6753C334.189 58.4195 334.573 58.2916 335.111 58.2916H336.608C337.219 58.2916 337.771 58.0486 338.257 57.5627C338.742 57.0511 338.997 56.1303 339.024 54.8002C338.997 54.5956 338.986 54.4037 338.986 54.2248C338.986 54.0457 338.986 53.8539 338.986 53.6493ZM360.187 48.5847C360.981 47.6894 361.927 46.9476 363.027 46.3593C364.126 45.771 365.47 45.4768 367.055 45.4768C368.768 45.4768 370.2 45.7455 371.353 46.2826C372.503 46.7942 373.423 47.4976 374.115 48.3927C374.804 49.2624 375.292 50.2856 375.573 51.4623C375.879 52.6132 376.032 53.841 376.032 55.1456C376.032 55.3245 376.019 55.4907 375.995 55.6444C375.995 55.7978 375.995 55.9512 375.995 56.1048C376.072 56.7953 376.378 57.3324 376.915 57.7161C377.478 58.0999 378.234 58.2916 379.178 58.2916H379.832C380.344 58.2916 380.727 58.4324 380.982 58.7137C381.237 58.9952 381.366 59.4683 381.366 60.1333C381.366 60.8752 381.237 61.3866 380.982 61.6682C380.752 61.9495 380.368 62.0902 379.832 62.0902C378.757 62.0902 377.81 61.9495 376.992 61.6682C376.199 61.3866 375.585 60.7728 375.15 59.8265C374.665 60.6961 373.986 61.2973 373.117 61.6298C372.273 61.9366 371.238 62.0902 370.009 62.0902H358.154C357.642 62.0902 357.259 61.9495 357.002 61.6682C356.747 61.3611 356.618 60.8624 356.618 60.1719C356.618 59.4299 356.747 58.9311 357.002 58.6753C357.232 58.4195 357.616 58.2916 358.154 58.2916H368.36C369.025 58.2916 369.562 58.2406 369.972 58.1382C370.38 58.036 370.699 57.8569 370.929 57.6011C371.16 57.3453 371.313 57.0128 371.39 56.6036C371.468 56.1686 371.506 55.6444 371.506 55.0303C371.506 54.2119 371.428 53.4573 371.275 52.7668C371.122 52.0761 370.865 51.4751 370.508 50.9635C370.149 50.4519 369.677 50.0555 369.087 49.774C368.526 49.4672 367.808 49.3136 366.939 49.3136C366.095 49.3136 365.328 49.4798 364.638 49.8123C363.947 50.1448 363.333 50.5926 362.796 51.1552C362.617 51.3343 362.437 51.3472 362.26 51.1936L360.265 49.1218C360.058 48.9172 360.034 48.7381 360.187 48.5847ZM387.214 42.3306C386.959 42.3306 386.83 42.2027 386.83 41.9469V38.6472C386.83 38.3916 386.959 38.2637 387.214 38.2637H390.437C390.694 38.2637 390.82 38.3916 390.82 38.6472V41.9469C390.82 42.2027 390.694 42.3306 390.437 42.3306H387.214ZM382.226 42.3306C381.971 42.3306 381.842 42.2027 381.842 41.9469V38.6472C381.842 38.3916 381.971 38.2637 382.226 38.2637H385.449C385.706 38.2637 385.833 38.3916 385.833 38.6472V41.9469C385.833 42.2027 385.706 42.3306 385.449 42.3306H382.226ZM379.847 62.0902C379.335 62.0902 378.952 61.975 378.697 61.7449C378.442 61.489 378.313 61.0158 378.313 60.3252C378.313 59.5835 378.442 59.059 378.697 58.752C378.927 58.4452 379.311 58.2916 379.847 58.2916H382.341C382.982 58.2916 383.441 58.1511 383.722 57.8698C384.03 57.5627 384.183 57.0256 384.183 56.2582V46.5511C384.183 46.2952 384.312 46.1676 384.567 46.1676H388.136C388.391 46.1676 388.519 46.2952 388.519 46.5511V57.2557C388.519 58.9183 388.174 60.1461 387.484 60.9391C386.792 61.7065 385.642 62.0902 384.03 62.0902H379.847Z" fill="black"></path>
  <path fill-rule="evenodd" clip-rule="evenodd" d="M251.112 131.408C244.485 131.408 239.646 128.135 239.086 123.145V123.136H231.374C231.863 132.244 239.397 137.999 250.56 137.999C262.488 137.999 269.987 132.102 269.987 122.691C269.987 115.317 265.699 111.172 255.372 108.735L249.831 107.383C243.347 105.782 240.696 103.683 240.696 100.125C240.696 95.6598 244.841 92.5911 250.907 92.5911C256.974 92.5911 261.119 95.6242 261.581 100.65H269.177C268.928 91.9596 261.741 86 251.005 86C240.269 86 232.699 91.9596 232.699 100.65C232.699 107.668 236.987 111.973 246.237 114.215L252.748 115.789C259.268 117.39 262.035 119.729 262.035 123.634C262.035 128.135 257.738 131.408 251.112 131.408ZM100.737 123.563H119.915L124.513 137.163H132.777L114.613 86.845H106.172L88 137.163H96.1299L100.737 123.563ZM117.931 117.283H102.73L110.228 95.2151H110.442L117.931 117.283ZM156.712 137.546C165.918 137.546 172.02 130.225 172.02 118.822H172.011C172.011 107.446 165.883 100.089 156.561 100.089C151.438 100.089 146.972 102.633 144.882 106.574H144.749V100.472H137.464V149.296H144.998V131.124H145.167C147.328 135.206 151.482 137.546 156.712 137.546ZM154.577 106.503C160.43 106.503 164.273 111.386 164.273 118.822C164.273 126.312 160.324 131.159 154.577 131.159C148.831 131.159 144.953 126.151 144.953 118.822C144.953 111.493 148.725 106.503 154.577 106.503ZM212.402 118.822C212.402 130.225 206.3 137.546 197.094 137.546C191.863 137.546 187.709 135.206 185.548 131.124H185.379V149.296H177.845V100.472H185.13V106.574H185.263C187.354 102.633 191.819 100.089 196.942 100.089C206.264 100.089 212.393 107.446 212.393 118.822H212.402ZM204.654 118.822C204.654 111.386 200.812 106.503 194.959 106.503C189.106 106.503 185.335 111.493 185.335 118.822C185.335 126.151 189.204 131.159 194.959 131.159C200.714 131.159 204.654 126.312 204.654 118.822ZM286.248 91.7994V100.481H293.23V106.44H286.248V126.667C286.248 129.816 287.644 131.284 290.713 131.284C291.469 131.284 292.697 131.168 293.186 131.106V137.039C292.35 137.243 290.677 137.386 289.005 137.386C281.569 137.386 278.678 134.593 278.678 127.486V106.449H273.35V100.49H278.678V91.7994H286.248ZM314.666 100.018C304.063 100.018 297.259 107.276 297.259 118.822C297.259 130.394 303.992 137.617 314.666 137.617C325.34 137.617 332.073 130.368 332.073 118.822C332.073 107.276 325.269 100.018 314.666 100.018ZM314.657 106.227C320.759 106.227 324.388 110.906 324.388 118.822C324.388 126.765 320.759 131.408 314.657 131.408C308.555 131.408 304.926 126.712 304.926 118.822C304.926 110.932 308.555 106.227 314.657 106.227ZM338.276 100.481H345.454V106.725H345.623C346.779 102.58 350.124 100.098 354.456 100.098C355.532 100.098 356.439 100.241 357.035 100.374V107.428C356.448 107.188 355.123 106.965 353.655 106.965C348.807 106.965 345.81 110.247 345.81 115.406V137.163H338.276V100.481ZM375.962 137.626C384.252 137.626 390.736 133.045 391.759 126.392L391.75 126.4H384.598C383.593 129.576 380.311 131.559 376.131 131.559C370.198 131.559 366.257 127.45 366.257 121.17V120.708H392.168V118.128C392.168 107.001 385.95 100.027 375.632 100.027C365.314 100.027 358.661 107.508 358.661 118.991C358.661 130.474 365.288 137.626 375.962 137.626ZM384.643 115.442H366.302C366.684 109.892 370.402 106.12 375.641 106.12C380.88 106.12 384.474 109.829 384.643 115.442Z" fill="black"></path>
</svg>
