<?xml version="1.0" encoding="UTF-8"?>
<svg xmlns="http://www.w3.org/2000/svg" width="547" height="183" viewBox="0 0 547 183" fill="none">
  <path d="M545.989 38.47C545.989 37.07 545.989 35.67 545.969 34.28C545.859 31.22 545.679 28.17 545.119 25.16C544.599 22.1 543.689 19.26 542.299 16.49C540.899 13.76 539.089 11.26 536.919 9.1C534.769 6.94 532.269 5.13 529.549 3.73C526.749 2.32 523.899 1.41 520.859 0.87C517.859 0.33 514.799 0.14 511.749 0.06C510.349 0.04 508.939 0.01 507.549 0C505.909 0 504.239 0 502.609 0H44.2989C42.6289 0 40.9789 0 39.3189 0C37.9189 0 36.5389 0.04 35.1289 0.06C32.1089 0.14 29.0289 0.33 26.0089 0.87C22.9489 1.4 20.1189 2.31 17.3489 3.73C14.6189 5.13 12.1189 6.94 9.96887 9.1C7.78887 11.26 5.98889 13.75 4.60889 16.49C3.18889 19.26 2.29891 22.1 1.75891 25.16C1.20891 28.18 1.02891 31.22 0.948914 34.28C0.898914 35.68 0.898906 37.08 0.878906 38.47V143.77C0.898906 145.19 0.898914 146.56 0.948914 147.98C1.02891 151.03 1.21891 154.09 1.75891 157.1C2.28891 160.14 3.18889 163 4.60889 165.77C5.98889 168.49 7.79887 170.98 9.96887 173.13C12.1189 175.3 14.6189 177.11 17.3489 178.5C20.1189 179.92 22.9589 180.82 26.0089 181.36C29.0289 181.91 32.1089 182.09 35.1289 182.17C36.5389 182.2 37.9289 182.22 39.3189 182.22C40.9789 182.22 42.6289 182.22 44.2989 182.22H502.609C504.249 182.22 505.919 182.22 507.549 182.22C508.939 182.22 510.359 182.2 511.749 182.17C514.799 182.08 517.859 181.9 520.859 181.36C523.909 180.82 526.759 179.92 529.549 178.5C532.279 177.11 534.769 175.3 536.919 173.13C539.089 170.98 540.899 168.49 542.299 165.77C543.699 163 544.609 160.14 545.119 157.1C545.679 154.08 545.849 151.03 545.969 147.98C545.989 146.56 545.989 145.19 545.989 143.77C546.019 142.12 546.019 140.47 546.019 138.79V43.45C546.019 41.78 546.019 40.13 545.989 38.47ZM542.049 138.79C542.049 140.44 542.049 142.06 542.019 143.69C542.019 145.17 542.019 146.53 541.999 147.92C541.909 150.61 541.739 153.56 541.229 156.36C540.749 159.15 539.959 161.63 538.769 163.97C537.539 166.34 535.979 168.49 534.139 170.28C532.259 172.19 530.119 173.74 527.769 174.93C525.409 176.14 522.999 176.93 520.169 177.44C517.249 177.97 514.229 178.12 511.649 178.19C510.319 178.22 508.919 178.24 507.569 178.24H39.3489C37.9589 178.24 36.6089 178.22 35.2389 178.19C32.6889 178.12 29.6689 177.97 26.7189 177.44C23.9389 176.94 21.4689 176.13 19.1689 174.95C16.7889 173.74 14.6489 172.19 12.8089 170.31C10.9189 168.47 9.36887 166.34 8.15887 163.95C6.97887 161.65 6.1789 159.18 5.6889 156.4C5.1289 153.34 4.98888 150.22 4.91888 147.86C4.89888 146.9 4.85889 143.69 4.85889 143.69V38.47C4.85889 38.47 4.89888 35.32 4.91888 34.4C4.97888 32.01 5.12889 28.9 5.67889 25.87C6.15889 23.07 6.96887 20.61 8.15887 18.31C9.36887 15.91 10.9289 13.78 12.7889 11.94C14.6689 10.04 16.8089 8.49 19.1789 7.28C21.5189 6.09 23.9889 5.28 26.7089 4.8C29.7689 4.24 32.8789 4.11 35.2489 4.05L39.3489 3.99H507.549L511.709 4.05C514.039 4.11 517.149 4.24 520.179 4.79C522.919 5.27 525.409 6.09 527.789 7.28C530.129 8.48 532.269 10.04 534.139 11.92C535.999 13.77 537.559 15.92 538.789 18.32C539.969 20.65 540.769 23.11 541.229 25.83C541.749 28.71 541.919 31.66 542.019 34.43C542.039 35.72 542.039 37.11 542.039 38.49C542.069 40.19 542.069 41.83 542.069 43.47V138.82L542.049 138.79Z" fill="black"></path>
  <path d="M148.42 108.88C138.92 108.88 131.18 116.1 131.18 126.05C131.18 136 138.92 143.23 148.42 143.23C157.92 143.23 165.66 135.94 165.66 126.05C165.66 116.16 157.92 108.88 148.42 108.88ZM148.42 136.46C143.22 136.46 138.73 132.17 138.73 126.05C138.73 119.93 143.22 115.64 148.42 115.64C153.62 115.64 158.11 119.87 158.11 126.05C158.11 132.23 153.62 136.46 148.42 136.46ZM110.81 108.88C101.31 108.88 93.57 116.1 93.57 126.05C93.57 136 101.31 143.23 110.81 143.23C120.31 143.23 128.05 135.94 128.05 126.05C128.05 116.16 120.31 108.88 110.81 108.88ZM110.81 136.46C105.61 136.46 101.12 132.17 101.12 126.05C101.12 119.93 105.61 115.64 110.81 115.64C116.01 115.64 120.5 119.87 120.5 126.05C120.5 132.23 116.01 136.46 110.81 136.46ZM66.07 114.15V121.43H83.51C82.99 125.53 81.62 128.52 79.54 130.6C77 133.15 73.03 135.93 66.07 135.93C55.33 135.93 46.94 127.28 46.94 116.54C46.94 105.8 55.33 97.15 66.07 97.15C71.86 97.15 76.09 99.43 79.21 102.36L84.35 97.22C79.99 93.05 74.21 89.87 66.07 89.87C51.36 89.87 39 101.84 39 116.54C39 131.24 51.36 143.22 66.07 143.22C74.01 143.22 79.99 140.61 84.67 135.74C89.49 130.93 90.98 124.17 90.98 118.7C90.98 117.01 90.85 115.45 90.59 114.15H66.06H66.07ZM251.38 119.53C249.95 115.69 245.6 108.61 236.68 108.61C227.76 108.61 220.47 115.57 220.47 125.78C220.47 135.41 227.76 142.96 237.52 142.96C245.39 142.96 249.94 138.14 251.83 135.35L245.98 131.45C244.03 134.32 241.36 136.2 237.52 136.2C233.68 136.2 230.95 134.44 229.19 131L252.16 121.51L251.37 119.55L251.38 119.53ZM227.96 125.26C227.77 118.63 233.1 115.24 236.94 115.24C239.94 115.24 242.47 116.74 243.32 118.89L227.96 125.26ZM209.29 142.92H216.84V92.43H209.29V142.92ZM196.92 107.45H196.66C194.97 105.44 191.71 103.62 187.62 103.62C179.03 103.62 171.16 111.17 171.16 120.86C171.16 130.55 179.04 137.97 187.62 137.97C191.72 137.97 194.97 136.15 196.66 134.07H196.92V136.54C196.92 143.1 193.41 146.62 187.75 146.62C183.13 146.62 180.27 143.3 179.1 140.5L172.52 143.24C174.41 147.79 179.42 153.39 187.75 153.39C196.6 153.39 204.08 148.18 204.08 135.5V104.67H196.92V107.46V107.45ZM188.27 131.2C183.07 131.2 178.7 126.84 178.7 120.86C178.7 114.88 183.06 110.39 188.27 110.39C193.48 110.39 197.44 114.82 197.44 120.86C197.44 126.9 193.41 131.2 188.27 131.2ZM286.72 91.45H268.67V141.93H276.2V122.8H286.72C295.07 122.8 303.28 116.76 303.28 107.12C303.28 97.48 295.07 91.45 286.72 91.45ZM286.91 115.78H276.19V98.47H286.91C292.54 98.47 295.75 103.13 295.75 107.12C295.75 111.11 292.55 115.78 286.91 115.78ZM333.49 108.52C328.03 108.52 322.38 110.93 320.04 116.25L326.73 119.05C328.15 116.25 330.82 115.35 333.61 115.35C337.51 115.35 341.47 117.69 341.53 121.85V122.37C340.16 121.59 337.24 120.42 333.67 120.42C326.46 120.42 319.13 124.38 319.13 131.79C319.13 138.55 325.03 142.9 331.66 142.9C336.73 142.9 339.52 140.63 341.27 137.97H341.53V141.86H348.81V122.51C348.81 113.55 342.12 108.54 333.48 108.54M332.57 136.21C330.1 136.21 326.66 134.99 326.66 131.93C326.66 128.03 330.95 126.54 334.65 126.54C337.96 126.54 339.52 127.26 341.53 128.23C340.94 132.91 336.92 136.22 332.57 136.22M375.31 104.67L366.67 126.55H366.41L357.45 104.67H349.33L362.78 135.25L355.11 152.27H362.97L383.69 104.67H375.31ZM306.4 143.49H313.94V93H306.4V143.49Z" fill="black"></path>
  <path d="M246.633 44.4719C246.377 44.4719 246.249 44.344 246.249 44.0882V40.7885C246.249 40.5329 246.377 40.405 246.633 40.405H250.316C250.572 40.405 250.7 40.5329 250.7 40.7885V44.0882C250.7 44.344 250.572 44.4719 250.316 44.4719H246.633ZM252.465 46.774C252.465 46.5182 252.593 46.3903 252.848 46.3903H256.417C256.673 46.3903 256.8 46.5182 256.8 46.774V52.9128C256.8 53.6803 257.082 54.2686 257.644 54.6778C258.233 55.087 259.013 55.2916 259.985 55.2916H260.407C260.919 55.2916 261.302 55.4324 261.558 55.7137C261.814 55.9952 261.942 56.4683 261.942 57.1333C261.942 57.8752 261.814 58.3866 261.558 58.6682C261.328 58.9495 260.944 59.0902 260.407 59.0902C259.64 59.0902 258.949 59.0133 258.335 58.8599C257.747 58.7065 257.235 58.374 256.8 57.8624V58.2844C256.8 59.7424 256.57 61.0212 256.11 62.1212C255.675 63.2211 255.035 64.1291 254.191 64.8453C253.373 65.5871 252.388 66.137 251.237 66.495C250.086 66.8533 248.807 67.0324 247.4 67.0324C246.045 67.0324 244.791 66.8533 243.64 66.495C242.515 66.137 241.53 65.5871 240.686 64.8453C239.842 64.1291 239.177 63.2211 238.691 62.1212C238.23 61.0212 238 59.7295 238 58.2461C238 56.8648 238.217 55.4836 238.652 54.1023C239.087 52.7211 239.624 51.5316 240.264 50.534C240.392 50.3039 240.583 50.2782 240.839 50.4573L243.947 51.6852C244.075 51.7364 244.139 51.8131 244.139 51.9153C244.165 51.992 244.152 52.0815 244.1 52.1839C243.691 52.9002 243.295 53.7441 242.911 54.7161C242.553 55.6627 242.374 56.7114 242.374 57.8624C242.374 58.8599 242.527 59.6912 242.835 60.3562C243.167 61.0469 243.576 61.5969 244.062 62.0061C244.574 62.4153 245.136 62.6967 245.75 62.8503C246.364 63.0292 246.965 63.1187 247.554 63.1187C249.012 63.1187 250.188 62.7224 251.083 61.9294C252.004 61.162 252.465 59.9086 252.465 58.1694V46.774ZM272.145 59.3587C270.866 59.3587 269.715 59.1924 268.692 58.8599C267.668 58.5019 266.812 57.9262 266.121 57.1333C265.865 57.5427 265.558 57.8752 265.2 58.131C264.842 58.3866 264.471 58.5915 264.088 58.7449C263.704 58.8728 263.308 58.9623 262.898 59.0133C262.489 59.0645 262.105 59.0902 261.747 59.0902H260.404C259.893 59.0902 259.509 58.9495 259.253 58.6682C258.997 58.3611 258.87 57.8624 258.87 57.1719C258.87 56.4299 258.997 55.9311 259.253 55.6753C259.483 55.4195 259.867 55.2916 260.404 55.2916H261.901C262.182 55.2916 262.463 55.2406 262.745 55.1382C263.026 55.0103 263.282 54.8186 263.512 54.5627C263.742 54.2814 263.934 53.9232 264.088 53.4885C264.241 53.0281 264.318 52.4653 264.318 51.8002C264.292 51.5956 264.279 51.4037 264.279 51.2248C264.279 51.0457 264.279 50.8539 264.279 50.6493C264.305 49.1656 264.51 47.9123 264.893 46.889C265.303 45.8405 265.853 44.9964 266.543 44.3568C267.259 43.6918 268.091 43.2185 269.037 42.9372C269.983 42.6302 271.019 42.4768 272.145 42.4768C273.27 42.4768 274.319 42.6302 275.291 42.9372C276.263 43.2443 277.094 43.7302 277.785 44.3952C278.501 45.0602 279.051 45.9427 279.435 47.0426C279.844 48.1424 280.049 49.4726 280.049 51.0328C280.049 52.542 279.857 53.821 279.473 54.8698C279.089 55.9183 278.552 56.7753 277.862 57.4403C277.171 58.1053 276.34 58.5915 275.368 58.8983C274.396 59.2053 273.321 59.3587 272.145 59.3587ZM272.145 46.3136C270.917 46.3136 270.009 46.7101 269.421 47.5031C268.832 48.296 268.538 49.4469 268.538 50.9561C268.538 52.5932 268.832 53.7698 269.421 54.486C270.009 55.2023 270.917 55.5603 272.145 55.5603C273.398 55.5603 274.319 55.2023 274.907 54.486C275.496 53.7441 275.79 52.5677 275.79 50.9561C275.79 47.8611 274.575 46.3136 272.145 46.3136ZM292.817 58.2461C292.817 56.8648 293.034 55.4836 293.469 54.1023C293.904 52.7211 294.441 51.5316 295.08 50.534C295.183 50.3551 295.375 50.3294 295.656 50.4573L298.764 51.6852C298.892 51.7364 298.956 51.8131 298.956 51.9153C298.981 51.992 298.968 52.0815 298.917 52.1839C298.508 52.9002 298.112 53.7441 297.728 54.7161C297.37 55.6627 297.191 56.7114 297.191 57.8624C297.191 58.8599 297.344 59.6912 297.651 60.3562C297.984 61.0469 298.393 61.5969 298.879 62.0061C299.39 62.4153 299.953 62.6967 300.567 62.8503C301.181 63.0292 301.782 63.1187 302.37 63.1187C303.854 63.1187 305.043 62.7224 305.939 61.9294C306.834 61.162 307.282 59.9086 307.282 58.1694V33.3837C307.282 33.1279 307.409 33 307.665 33H311.233C311.49 33 311.616 33.1279 311.616 33.3837V52.9128C311.616 53.6803 311.898 54.2686 312.461 54.6778C313.048 55.087 313.829 55.2916 314.802 55.2916H315.416C315.928 55.2916 316.311 55.4324 316.566 55.7137C316.821 55.9952 316.95 56.4683 316.95 57.1333C316.95 57.8752 316.821 58.3866 316.566 58.6682C316.336 58.9495 315.952 59.0902 315.416 59.0902C314.598 59.0902 313.869 59.0262 313.228 58.8983C312.614 58.7449 312.077 58.3995 311.616 57.8624V58.2844C311.616 59.7424 311.386 61.0212 310.926 62.1212C310.492 63.2211 309.852 64.1291 309.008 64.8453C308.19 65.5871 307.205 66.137 306.054 66.495C304.903 66.8533 303.624 67.0324 302.217 67.0324C300.861 67.0324 299.608 66.8533 298.457 66.495C297.331 66.137 296.347 65.5871 295.502 64.8453C294.659 64.1291 293.993 63.2211 293.507 62.1212C293.047 61.0212 292.817 59.7295 292.817 58.2461ZM322.736 66.4567C322.481 66.4567 322.352 66.3288 322.352 66.0732V62.7736C322.352 62.5178 322.481 62.3899 322.736 62.3899H325.959C326.216 62.3899 326.342 62.5178 326.342 62.7736V66.0732C326.342 66.3288 326.216 66.4567 325.959 66.4567H322.736ZM317.748 66.4567C317.493 66.4567 317.364 66.3288 317.364 66.0732V62.7736C317.364 62.5178 317.493 62.3899 317.748 62.3899H320.971C321.228 62.3899 321.355 62.5178 321.355 62.7736V66.0732C321.355 66.3288 321.228 66.4567 320.971 66.4567H317.748ZM323.733 57.1333C323.376 57.8752 322.826 58.3866 322.084 58.6682C321.368 58.9495 320.397 59.0902 319.169 59.0902H315.6C315.088 59.0902 314.704 58.975 314.449 58.7449C314.192 58.489 314.066 58.0031 314.066 57.2869C314.066 56.545 314.192 56.0336 314.449 55.752C314.68 55.4452 315.063 55.2916 315.6 55.2916H318.094C318.555 55.2916 318.901 55.2278 319.129 55.0999C319.386 54.9465 319.566 54.729 319.668 54.4477C319.794 54.1407 319.872 53.757 319.898 53.2965C319.923 52.8106 319.936 52.2223 319.936 51.5316V43.5511C319.936 43.3977 320 43.2952 320.126 43.2443C320.282 43.193 320.435 43.1676 320.588 43.1676H323.888C324.143 43.1676 324.272 43.2952 324.272 43.5511V52.9128C324.272 53.6803 324.553 54.2686 325.116 54.6778C325.704 55.087 326.484 55.2916 327.455 55.2916H328.109C328.619 55.2916 329.002 55.4324 329.259 55.7137C329.514 55.9952 329.643 56.4683 329.643 57.1333C329.643 57.8752 329.514 58.3866 329.259 58.6682C329.029 58.9495 328.645 59.0902 328.109 59.0902C327.111 59.0902 326.24 58.975 325.5 58.7449C324.757 58.489 324.17 57.9519 323.733 57.1333ZM339.851 46.3136C338.623 46.3136 337.714 46.7101 337.127 47.5031C336.539 48.296 336.244 49.4469 336.244 50.9561C336.244 52.5932 336.539 53.7698 337.127 54.486C337.714 55.2023 338.623 55.5603 339.851 55.5603C341.104 55.5603 342.026 55.2023 342.613 54.486C343.201 53.7441 343.495 52.5677 343.495 50.9561C343.495 47.8611 342.281 46.3136 339.851 46.3136ZM331.986 50.6493C332.01 49.1656 332.217 47.9123 332.6 46.889C333.008 45.8405 333.558 44.9964 334.249 44.3568C334.965 43.6918 335.797 43.2185 336.743 42.9372C337.69 42.6302 338.725 42.4768 339.851 42.4768C340.977 42.4768 342.026 42.6302 342.997 42.9372C343.97 43.2443 344.801 43.7302 345.491 44.3952C346.207 45.0602 346.756 45.9427 347.14 47.0426C347.55 48.1424 347.754 49.4726 347.754 51.0328C347.754 51.2631 347.754 51.4932 347.754 51.7235C347.754 51.9281 347.743 52.1327 347.716 52.3373C347.743 53.4116 347.984 54.179 348.445 54.6394C348.931 55.0744 349.481 55.2916 350.095 55.2916H351.207C351.72 55.2916 352.103 55.4324 352.358 55.7137C352.615 55.9952 352.741 56.4683 352.741 57.1333C352.741 57.8752 352.615 58.3866 352.358 58.6682C352.127 58.9495 351.744 59.0902 351.207 59.0902C350.773 59.0902 350.312 59.0774 349.826 59.0519C349.365 59.0262 348.893 58.9495 348.408 58.8216C347.947 58.6682 347.499 58.4635 347.064 58.2077C346.654 57.9262 346.284 57.5427 345.952 57.0566C345.26 57.8752 344.391 58.4636 343.342 58.8216C342.318 59.1796 341.155 59.3587 339.851 59.3587C338.572 59.3587 337.422 59.1924 336.397 58.8599C335.375 58.5019 334.518 57.9262 333.826 57.1333C333.571 57.5427 333.265 57.8752 332.906 58.131C332.549 58.3866 332.177 58.5915 331.793 58.7449C331.41 58.8728 331.013 58.9623 330.605 59.0133C330.195 59.0645 329.811 59.0902 329.452 59.0902H328.111C327.599 59.0902 327.216 58.9495 326.959 58.6682C326.704 58.3611 326.575 57.8624 326.575 57.1719C326.575 56.4299 326.704 55.9311 326.959 55.6753C327.189 55.4195 327.573 55.2916 328.111 55.2916H329.608C330.219 55.2916 330.771 55.0486 331.257 54.5627C331.742 54.0511 331.997 53.1303 332.024 51.8002C331.997 51.5956 331.986 51.4037 331.986 51.2248C331.986 51.0457 331.986 50.8539 331.986 50.6493ZM353.187 45.5847C353.981 44.6894 354.927 43.9476 356.027 43.3593C357.126 42.771 358.47 42.4768 360.055 42.4768C361.768 42.4768 363.2 42.7455 364.353 43.2826C365.503 43.7942 366.423 44.4976 367.115 45.3927C367.804 46.2624 368.292 47.2856 368.573 48.4623C368.879 49.6132 369.032 50.841 369.032 52.1456C369.032 52.3245 369.019 52.4907 368.995 52.6444C368.995 52.7978 368.995 52.9512 368.995 53.1048C369.072 53.7953 369.378 54.3324 369.915 54.7161C370.478 55.0999 371.234 55.2916 372.178 55.2916H372.832C373.344 55.2916 373.727 55.4324 373.982 55.7137C374.237 55.9952 374.366 56.4683 374.366 57.1333C374.366 57.8752 374.237 58.3866 373.982 58.6682C373.752 58.9495 373.368 59.0902 372.832 59.0902C371.757 59.0902 370.81 58.9495 369.992 58.6682C369.199 58.3866 368.585 57.7728 368.15 56.8265C367.665 57.6961 366.986 58.2973 366.117 58.6298C365.273 58.9366 364.238 59.0902 363.009 59.0902H351.154C350.642 59.0902 350.259 58.9495 350.002 58.6682C349.747 58.3611 349.618 57.8624 349.618 57.1719C349.618 56.4299 349.747 55.9311 350.002 55.6753C350.232 55.4195 350.616 55.2916 351.154 55.2916H361.36C362.025 55.2916 362.562 55.2406 362.972 55.1382C363.38 55.036 363.699 54.8569 363.929 54.6011C364.16 54.3453 364.313 54.0128 364.39 53.6036C364.468 53.1686 364.506 52.6444 364.506 52.0303C364.506 51.2119 364.428 50.4573 364.275 49.7668C364.122 49.0761 363.865 48.4751 363.508 47.9635C363.149 47.4519 362.677 47.0555 362.087 46.774C361.526 46.4672 360.808 46.3136 359.939 46.3136C359.095 46.3136 358.328 46.4798 357.638 46.8123C356.947 47.1448 356.333 47.5926 355.796 48.1552C355.617 48.3343 355.437 48.3472 355.26 48.1936L353.265 46.1218C353.058 45.9172 353.034 45.7381 353.187 45.5847ZM380.214 39.3306C379.959 39.3306 379.83 39.2027 379.83 38.9469V35.6472C379.83 35.3916 379.959 35.2637 380.214 35.2637H383.437C383.694 35.2637 383.82 35.3916 383.82 35.6472V38.9469C383.82 39.2027 383.694 39.3306 383.437 39.3306H380.214ZM375.226 39.3306C374.971 39.3306 374.842 39.2027 374.842 38.9469V35.6472C374.842 35.3916 374.971 35.2637 375.226 35.2637H378.449C378.706 35.2637 378.833 35.3916 378.833 35.6472V38.9469C378.833 39.2027 378.706 39.3306 378.449 39.3306H375.226ZM372.847 59.0902C372.335 59.0902 371.952 58.975 371.697 58.7449C371.442 58.489 371.313 58.0158 371.313 57.3252C371.313 56.5835 371.442 56.059 371.697 55.752C371.927 55.4452 372.311 55.2916 372.847 55.2916H375.341C375.982 55.2916 376.441 55.1511 376.722 54.8698C377.03 54.5627 377.183 54.0256 377.183 53.2582V43.5511C377.183 43.2952 377.312 43.1676 377.567 43.1676H381.136C381.391 43.1676 381.519 43.2952 381.519 43.5511V54.2557C381.519 55.9183 381.174 57.1461 380.484 57.9391C379.792 58.7065 378.642 59.0902 377.03 59.0902H372.847Z" fill="black"></path>
  <path d="M464.029 86.08L478.569 71.4L422.149 39.34C420.059 38.15 418.149 37.87 416.539 38.21L464.029 86.08Z" fill="black"></path>
  <path d="M412.64 42.01C412.24 43.04 412 44.24 412 45.63V134.86C412 136.25 412.23 137.44 412.62 138.46L460.44 90.18L412.64 42V42.01Z" fill="black"></path>
  <path d="M464.03 93.53L416.5 141.53C418.12 141.89 420.04 141.62 422.15 140.41L478.67 108.28L464.03 93.52V93.53Z" fill="black"></path>
  <path d="M500.837 84.04L483.297 74.07L467.727 89.8L483.407 105.61L500.847 95.7C506.487 92.5 506.487 87.25 500.847 84.05" fill="black"></path>
</svg>
